<svg xmlns="http://www.w3.org/2000/svg" viewBox="0 0 126.16 145.49">
    <defs>
        <style>.cls-1{fill:#f89621;}</style>
    </defs>
    <g id="Layer_2" data-name="Layer 2">
        <g id="Layer_5" data-name="Layer 5">
            <path class="cls-1" d="M63.88,0a11.23,11.23,0,0,1,1.68,2.61,25.75,25.75,0,0,0,10.19,14c3.44,2.49,6.64,5.32,10.36,8.33a51.38,51.38,0,0,1,4.12-3.19c.77-.49,2.14-.92,2.77-.56s1,1.76,1,2.68a43.12,43.12,0,0,1-.76,5.09l15,5.94a25.2,25.2,0,0,0,14.66.89c1-.21,2.18.39,3.28.61-.33,1.15-.32,2.61-1,3.38a26.54,26.54,0,0,0-7,16.1c-.43,4.14-1.26,8.24-2,12.84a42.4,42.4,0,0,1,4.68,2,3.93,3.93,0,0,1,2,2.26c.09.6-1.11,1.64-1.94,2.07a47.74,47.74,0,0,1-4.76,1.93c.79,5.08,1.65,9.71,2.19,14.38A25.58,25.58,0,0,0,125,105.83c.73.82.79,2.23,1.17,3.36-1.17.25-2.44.93-3.49.69a25.31,25.31,0,0,0-15.92,1.46c-4.33,1.85-8.76,3.45-13.55,5.32a46.27,46.27,0,0,1,.74,5.1c0,.93-.26,2.34-.88,2.71s-2,0-2.81-.53a46.29,46.29,0,0,1-4.07-3.18c-4.34,3.45-8.36,6.68-12.41,9.88a24.74,24.74,0,0,0-8.18,12.19,4.28,4.28,0,0,1-2.32,2.59c-1.59.42-2-1.18-2.41-2.45A25.15,25.15,0,0,0,51,129.29c-3.55-2.59-6.88-5.49-10.67-8.54a40.85,40.85,0,0,1-4,3.1,3.89,3.89,0,0,1-3,.55c-.55-.24-.81-1.79-.77-2.73a48.89,48.89,0,0,1,.72-5c-5.85-2.26-11.33-4.52-16.9-6.49C12.24,108.7,8,109,3.71,109.91a4,4,0,0,1-3.23-.71c-1.1-1.15-.1-2.35.87-3.33a25.32,25.32,0,0,0,7-15.58c.47-4.3,1.27-8.56,2-13.35A41.64,41.64,0,0,1,5.69,75a3.93,3.93,0,0,1-2-2.29c-.09-.59,1.11-1.62,1.94-2.06,1.66-.86,3.46-1.44,4.71-2-.78-5.18-1.58-9.9-2.18-14.64A24.37,24.37,0,0,0,1.4,39.85c-.94-1-1.87-2-1-3.39s2.16-1.05,3.47-.73a25.14,25.14,0,0,0,16.55-1.67c4-1.79,8.2-3.24,12.84-5a48.06,48.06,0,0,1-.67-5.12c0-.93.25-2.32.87-2.7s2,0,2.79.5a44.17,44.17,0,0,1,4.08,3.22c4.37-3.47,8.46-6.73,12.55-10A24.08,24.08,0,0,0,60.77,3.11,17.7,17.7,0,0,1,62.51,0Zm-.67,104.73a31.92,31.92,0,1,0-31.89-32A31.83,31.83,0,0,0,63.21,104.73Zm-55.4-.2A80.93,80.93,0,0,1,17,105.92a86,86,0,0,1,8.3,3.26c2.23.87,4.5,1.64,6.75,2.46l.47-.55c-.82-1.92-1.63-3.86-2.47-5.78-2.23-5.06-2.92-5.46-8.55-4.83a13,13,0,0,1-2.48.41c-1-.08-2.48-.27-2.71-.83a4.18,4.18,0,0,1,.62-3c1.25-2.25,2.73-4.37,4-6.59a2,2,0,0,0,.18-1.72c-2.08-2.87-4.27-5.65-6.73-8.87C11.72,88.4,13.47,97.45,7.81,104.53Zm86,7.2c8.76-2.16,15.72-8,24.7-6.66-1.18-2.75-2.54-5-3.12-7.49-.9-3.77-1.23-7.68-1.87-11.51-.31-1.91-.79-3.79-1.31-6.25-2.52,3.27-4.65,6-6.66,8.73a2.14,2.14,0,0,0,0,1.88c1.26,2.24,2.74,4.36,4,6.62.5.88,1.08,2.31.7,2.93s-1.89.86-2.91.88c-2.5,0-5-.21-7.51-.21a2.24,2.24,0,0,0-1.75.82C96.63,104.64,95.35,107.89,93.77,111.73ZM45.27,26.32l.35.75c2.19.27,4.38.52,6.56.8,4.8.59,5.51.22,7.61-4.2a26.79,26.79,0,0,1,1.29-3.16c.55-.85,1.42-1.88,2.27-2,.59-.09,1.56,1.12,2,1.93,1.35,2.28,2.49,4.68,3.82,7a2.15,2.15,0,0,0,1.64.94c3.37-.36,6.74-.87,10.68-1.41-6-6.57-14.77-9.65-18-18a76.11,76.11,0,0,1-5.41,6.9,75.09,75.09,0,0,1-6.55,5.34C49.43,22.89,47.36,24.61,45.27,26.32ZM94.47,34l-.42.59c1.32,3.21,2.61,6.44,4,9.62a2,2,0,0,0,1.56.74c2.57,0,5.14-.22,7.71-.18,1,0,2.52.24,2.89.9s-.2,2.05-.69,2.94c-1.25,2.25-2.73,4.37-4,6.61a2.14,2.14,0,0,0,0,1.88c2,2.77,4.14,5.44,6.57,8.59,2.7-8.46,1-17.55,6.71-24.8-2.16-.12-3.92.08-5.48-.37-4-1.17-8-2.6-11.9-4C99.08,35.76,96.79,34.87,94.47,34ZM63.06,137c1.21-1.84,2-3.6,3.26-4.84,2.83-2.75,5.88-5.27,8.88-7.85,2-1.71,4-3.35,6.06-5l-.28-.64c-3.46-.46-6.91-1-10.37-1.32a2,2,0,0,0-1.43,1c-1.26,2.15-2.34,4.41-3.63,6.54a17.28,17.28,0,0,1-2.26,2.52A15.88,15.88,0,0,1,61,124.91c-.71-1.15-1-2.55-1.65-3.75-2-3.74-2.43-3.92-6.56-3.39-1.14.14-2.29.18-3.42.33-1.3.17-2.58.41-4.4.71C51.1,125.32,59.72,128.4,63.06,137ZM32.67,34c-8.75,2-15.73,8-25.16,6.58,4.17,5.86,4.81,11.93,5.4,18,.21,2.21.79,4.39,1.21,6.58A59.86,59.86,0,0,0,21,57.1a2.19,2.19,0,0,0-.06-1.9c-1.27-2.24-2.76-4.35-4-6.6-.49-.89-1-2.31-.66-2.93s1.88-.85,2.9-.87c2.57,0,5.14.16,7.71.16a2,2,0,0,0,1.57-.73C29.83,41.06,31.1,37.83,32.67,34Zm81,38.83-9.12-9.25-3.45,9.24c1.18,3.18,2.39,6.41,3.46,9.26Zm-88.33,0-3.47-9.2-9.11,9.22,9.12,9.26C23,79.19,24.17,76,25.36,72.81ZM38,116.57l12.58-3.25-6.3-7.67-9.69-1.58C35.71,108.17,36.92,112.59,38,116.57Zm50.48,0c1.11-4.08,2.31-8.47,3.35-12.33-2.8.3-5.93.63-9.06,1a1.74,1.74,0,0,0-1.11.53c-2,2.62-3.9,5.28-5.58,7.56Zm0-87.49L76.09,32.32c1.68,2.29,3.54,4.84,5.43,7.36a1.79,1.79,0,0,0,1,.71c3.25.41,6.51.76,9.31,1.08C90.79,37.56,89.6,33.2,88.47,29.08ZM34.62,41.49c2.73-.34,5.79-.71,8.84-1.1.43,0,1-.06,1.23-.33,2-2.66,4-5.37,5.91-8A61.24,61.24,0,0,1,44.11,31a57.18,57.18,0,0,1-6-2.21C36.92,33.08,35.71,37.5,34.62,41.49Zm41,65.66a39.68,39.68,0,0,1-25.3-.44l12.85,11.38ZM99.15,79.31A40.16,40.16,0,0,1,86.07,101l16.32-5.53ZM75.56,38.43,63.23,27.54,51.08,38.34A42.69,42.69,0,0,1,75.56,38.43ZM39.64,45,24.09,50.2l3.25,16.13A42.17,42.17,0,0,1,39.64,45Zm47.19,0A41.68,41.68,0,0,1,99.12,66.38c1.14-5.57,2.27-11.14,3.29-16.16ZM24.09,95.45l15.7,5.33A39.77,39.77,0,0,1,27.48,78.56Z"/>
        </g>
    </g>
</svg>