<svg xmlns="http://www.w3.org/2000/svg" viewBox="0 0 173.78 90.77" chakra2>
<defs>
<style>.cls-1{fill:#f89621;}</style>
</defs>
<g id="Layer_2" data-name="Layer 2">
    <g id="Layer_5" data-name="Layer 5">
        <path class="cls-1" d="M171.2,43.94a32.59,32.59,0,0,1-17-10.7c-2.39-2.78-4.71-5.63-7-8.52-7.22-9.26-16.82-13.64-28.43-13.8a7.3,7.3,0,0,1-4.56-1.62A45.24,45.24,0,0,0,60,8.79a7.58,7.58,0,0,1-4.13,1.37c-11.78.07-21.6,4.19-29.08,13.49Q23.34,27.94,19.64,32A32,32,0,0,1,2.82,42.12c-1.4.32-2.84.61-2.82,2.41,0,1.63,1.35,2,2.68,2.31a31.37,31.37,0,0,1,16,9.74c2.58,2.91,5.08,5.91,7.45,9,7.43,9.67,17.3,14.17,29.38,14.3A6.33,6.33,0,0,1,59,81.16a46.94,46.94,0,0,0,17.45,8.33c1.85.44,3.71.8,5.57,1.19l8.72.09c1.94-.36,3.89-.68,5.82-1.1a45.85,45.85,0,0,0,17.74-8.17s2.23-2.22,9.11-2.15c6.11.06,12.47-2.69,16.34-5.38a52.14,52.14,0,0,0,8.63-8.56c1.8-2.18,3.62-4.33,5.5-6.44a33.13,33.13,0,0,1,17.36-10.49,11.53,11.53,0,0,0,2.54-1.35l0-1.84A12.73,12.73,0,0,0,171.2,43.94Zm-86-39.55C103.78,3.5,116.88,15.08,121.63,24l-69.35-.71C60.46,11.51,71.21,5.06,85.19,4.39ZM33.38,67.06a61.68,61.68,0,0,1-4.88-5.47C23.24,54.93,18,48.28,9.52,44.65c1.05-.55,1.7-.91,2.35-1.24,5.39-2.67,9.59-6.74,13.44-11.26C28,29,30.62,25.82,33.52,22.9c5.31-5.34,11.93-7.77,19.57-8.23-15.21,20-15.46,40.09-.66,60.65C45,74.77,38.6,72.21,33.38,67.06ZM49,30C60.17,48.72,71.2,67.22,82.42,86,55.83,83.36,38.63,55.19,49,30Zm3.71-2.19,68.68.71L86.47,84.42Zm37.8,58.29L125,30.8C135,56,117.15,84.05,90.51,86.09ZM163.69,46.4c-6.39,2.81-11.32,7.4-15.7,12.7-2.29,2.76-4.59,5.53-7.09,8.1-5.45,5.64-12.21,8.39-20.19,8.83,15.16-20.09,15.4-40.14.59-60.65,7.56.57,14.08,3.18,19.32,8.55a95.47,95.47,0,0,1,6.58,7.63c4.62,5.87,9.61,11.28,16.59,14.31C163.74,46.15,163.76,46.37,163.69,46.4Z"/>
    </g>
</g>
</svg>