<svg xmlns="http://www.w3.org/2000/svg" viewBox="0 0 127.02 130.5" class="chakra3">
    <defs>
        <style>.cls-1{fill:#f89621;}</style>
    </defs>
    <g id="Layer_2" data-name="Layer 2">
        <g id="Layer_5" data-name="Layer 5">
            <path class="cls-1" d="M0,50.25c1.1-.4,2.19-.83,3.3-1.19,2.5-.82,5.07-1.45,7.5-2.43s4.89-2.31,7-3.35c-.56-2.94-1-6.17-1.86-9.27-.61-2.15-2-4.08-2.79-6.18a13.68,13.68,0,0,1-.44-3.3c1-.09,2.25-.57,3.1-.21a16.31,16.31,0,0,0,8.48,1.28,69.33,69.33,0,0,1,7.6-.06c.78-3,1.83-6.15,2.38-9.4.37-2.2-.06-4.53.09-6.79a4,4,0,0,1,1.14-2.78c.48-.33,2.11.24,2.64.89a17.29,17.29,0,0,0,8.33,5.38,36.78,36.78,0,0,1,5.71,3c1.91-2.28,4.1-4.57,5.89-7.14,1.37-2,2.16-4.31,3.36-6.4A13.24,13.24,0,0,1,63.62,0c.74.74,1.94,1.36,2.16,2.24a16.8,16.8,0,0,0,4.74,7.94,51.11,51.11,0,0,1,4.29,5.51c3-1.31,6.25-2.56,9.34-4.22,1.76-1,3.11-2.65,4.76-3.84a12.81,12.81,0,0,1,2.9-1.19c.38,1,1.2,2.17,1,3.12a17.94,17.94,0,0,0,.67,8.57A65.28,65.28,0,0,1,95,26c1.67-.14,3.71-.65,5.66-.39,4.12.53,8,.47,11.82-1.51a2,2,0,0,1,2,.41c.38.68.63,2,.24,2.44-2.88,3.33-3.51,7.34-4,11.49a21.55,21.55,0,0,1-1.48,4.46c3.07,1.7,6,3.61,9.26,5,2,.86,4.27.86,6.39,1.4.82.21,2,.71,2.17,1.3a2.6,2.6,0,0,1-1.15,2.25c-3.85,1.74-6.15,4.84-8.19,8.35a24.46,24.46,0,0,1-3.34,3.81c1.88,2.51,3.71,5.29,5.9,7.75,1.49,1.67,3.55,2.81,5.21,4.34.74.68,1.69,1.84,1.55,2.58a3.11,3.11,0,0,1-2.46,1.63,17.19,17.19,0,0,0-8.79,2.89,52.93,52.93,0,0,1-6.37,3c.55,2.6,1,5.38,1.76,8s2,4.87,2.9,7.34c.38,1,.91,2.42.52,3.23-.71,1.47-2.13.71-3.43.37a40.87,40.87,0,0,0-7.1-1.3c-3-.21-6,0-8.63,0-.71,2.81-1.66,5.7-2.14,8.66-.39,2.44-.16,5-.36,7.45a15.43,15.43,0,0,1-.85,3c-1-.35-2.48-.38-3.09-1.1a17,17,0,0,0-7.54-5,56.57,56.57,0,0,1-6.33-3.14c-2,2.31-4.21,4.67-6.08,7.29-1.3,1.82-2,4.07-3.12,6a14,14,0,0,1-2.26,2.43c-.74-.82-1.87-1.52-2.16-2.48a17.63,17.63,0,0,0-4.4-7.39,68,68,0,0,1-4.62-5.79c-2.88,1.28-6.18,2.54-9.27,4.21-1.76,1-3.1,2.66-4.77,3.81A12.58,12.58,0,0,1,35.27,124c-.3-1-1-2.09-.82-3a17.13,17.13,0,0,0-.84-9,54.18,54.18,0,0,1-1.52-7.19c-2.89,0-6.07-.17-9.21.06-2.31.17-4.57,1-6.89,1.3a15,15,0,0,1-3.31-.26c.18-1.1,0-2.43.59-3.26a16.79,16.79,0,0,0,3-7.81,66.61,66.61,0,0,1,1.68-7.42C15.22,86,12.36,84.3,9.33,83c-1.92-.82-4.11-1-6.14-1.58A29.51,29.51,0,0,1,0,80.08V78.24c6.6-2.19,8.34-9.32,13.08-12.73C11.31,63.27,9.75,61,7.93,59s-3.76-3.65-5.71-5.4A21.48,21.48,0,0,0,0,52.09ZM44.38,67.11A19.29,19.29,0,1,0,63.62,47.9,19.23,19.23,0,0,0,44.38,67.11Zm54-23.44c-3.41-7.75-17.55-19.53-34.46-19.54S33.46,34.7,29.19,43.67Zm3.24,6.39L67.7,106C94.6,103.55,111.92,75.18,101.57,50.06Zm-42,55.87-34-55.69C15.19,75.81,33.5,104,59.61,105.93ZM98.38,48H77.32a24.93,24.93,0,0,1,9.9,17.63C91.06,59.54,94.61,53.91,98.38,48ZM49.82,48H29.24L39.72,65.21A26.69,26.69,0,0,1,49.82,48Zm4.56,41.2,9.26,15.14c3.19-5.22,6.17-10.09,9.32-15.26C64.59,91.1,64.59,91.1,54.38,89.24Zm49-46.11c4.34-3.36,3.23-8.59,4.6-13.24-4.9.27-9.78-2-13.94,1.5C97.19,35.35,100.26,39.19,103.39,43.13ZM71,110.34H56.41c-.19,5.39,4.75,7.54,7.24,11.48C66.14,117.88,70.94,115.71,71,110.34Zm35-62.26c1.08,4.81,2.14,9.51,3.19,14.17,5.48-.92,6.53-6.2,9.7-9.53C110.31,47.85,109.93,47.72,106,48.08ZM39.13,14.31c-.57,4.66-4,8.75-1.6,13.46l13.12-6.34C48.48,16.63,43.13,16.77,39.13,14.31Zm68.63,86.18c-1.4-4.48-.2-9.6-4.33-12.8L94.3,99.11C98.37,102.42,103.1,100.09,107.76,100.49ZM39.14,116.25c3.93-2.53,9.32-2.3,11.5-7.17l-13.15-6.34C35.19,107.55,38.55,111.59,39.14,116.25Zm70.19-48.62C108.11,73,107,77.69,106,82.41c5.22,1.2,8.41-2.92,12.5-4.54a51.79,51.79,0,0,0-4-5.9A45.41,45.41,0,0,0,109.33,67.63ZM71,20.2c0-5.36-4.79-7.59-7.35-11.48-2.49,4-7.43,6.15-7.23,11.48ZM33,31.41c-4.15-3.32-8.81-1-13.45-1.33,1.47,4.51.19,9.64,4.35,12.75ZM19.53,100.5c4.78-.37,9.47,1.92,13.4-1.4L23.84,87.67C19.74,90.91,20.89,96,19.53,100.5ZM18.07,62.32c1.11-4.85,2.18-9.55,3.25-14.24-5.2-1.15-8.41,3-12.76,4.65C11.89,56,12.9,61.26,18.07,62.32Zm0,5.88c-5.2,1.15-6.23,6.3-9.49,9.64,4.4,1.63,7.62,5.87,12.73,4.56ZM76.64,21.44l13.14,6.33c2.24-4.74-1-8.84-1.7-13.45C84.11,16.79,78.8,16.64,76.64,21.44Zm13.14,81.31-13.14,6.34c2.19,4.78,7.45,4.68,11.5,7.12C88.76,111.57,92.08,107.49,89.78,102.75Z"/>
        </g>
    </g>
</svg>