<svg xmlns="http://www.w3.org/2000/svg" viewBox="0 0 121.22 121.35" class="chakra4">
    <defs>
        <style>.cls-1{fill:#f89621;}</style>
    </defs>
    <g id="Layer_2" data-name="Layer 2">
        <g id="Layer_5" data-name="Layer 5">
            <path class="cls-1" d="M48.06,109.63a80.51,80.51,0,0,1-8.27,1.44c-2.55.2-5,.35-7.12,2a2.64,2.64,0,0,1-2.47.12c-.59-.38-.76-1.51-.95-2.34-.4-1.83-.35-3.84-1.12-5.48-1.39-3-3.38-5.66-2.81-8.45-3.16-1.26-5.89-2.47-8.71-3.42-2-.66-4.08-.92-6.1-1.46-.88-.23-2-.49-2.44-1.13s.11-1.65.34-2.47C9,86.3,10,84.19,10.2,82c.24-2.91.23-5.79,2.4-8.45C9.17,72.44,7.79,69.6,6,67c-1.11-1.63-2.92-2.77-4.37-4.18C1,62.2,0,61.43,0,60.71s1-1.49,1.64-2.14C3.16,57,5,55.75,6.24,54c1.72-2.46,3.11-5.11,6.38-6.13a11.16,11.16,0,0,1-2.33-8.15A10.37,10.37,0,0,0,8.36,32.8a2.75,2.75,0,0,1-.24-2.47c.36-.6,1.47-.84,2.29-1,2.16-.57,4.39-.89,6.51-1.57,2.69-.86,5.3-2,8.41-3.18-.69-3,1.6-5.83,3.05-9,.67-1.44.55-3.24.89-4.85.2-.9.38-2.13,1-2.52s1.78.05,2.66.28C35.1,9,37.21,10,39.4,10.23c2.92.25,5.81.21,8.36,2.41,1.15-3.33,3.85-4.77,6.39-6.51C55.84,5,57,3.12,58.5,1.63,59.15,1,59.89.09,60.67,0a2.7,2.7,0,0,1,2,1.49c1,2.42,3,3.73,5,5.13C69.87,8.13,71.81,10,74.22,12c2.13-2,5.54-1.55,8.86-1.8,1.67-.13,3.27-1.06,4.93-1.56.94-.29,2.16-.88,2.83-.53s.84,1.7,1.1,2.64c.56,2,.92,4.1,1.58,6.08.93,2.75,2.07,5.42,3.27,8.53,2.79-.66,5.48,1.37,8.44,2.77,1.57.75,3.5.74,5.24,1.17,1,.24,2.19.44,2.68,1.11.37.52-.17,1.76-.4,2.65-.56,2.17-1.27,4.3-1.73,6.49-.57,2.7-.94,5.44-1.46,8.57,2.67.85,4,3.88,5.89,6.59,1,1.51,2.75,2.52,4.1,3.81.67.63,1.65,1.39,1.67,2.11s-.92,1.54-1.57,2.17c-1.44,1.42-3.25,2.54-4.39,4.15-1.79,2.56-3.12,5.46-6.66,6.56,2.34,2.69,2.16,5.69,2.47,8.65.22,2.12,1.2,4.15,1.76,6.24.24.88.59,2,.25,2.69s-1.47.74-2.3.95c-2,.51-4.14.78-6.11,1.44-2.82.95-5.55,2.17-8.12,3.19-1,2.5-2.18,5.23-3.12,8-.66,2-.94,4.08-1.47,6.1-.24.88-.48,2-1.12,2.46a2.73,2.73,0,0,1-2.45-.35c-2-1.55-4.31-1.68-6.7-1.88-2.73-.23-5.43-.88-8.52-1.41-.81,2.55-3.65,3.93-6.23,5.71-1.62,1.12-2.75,2.93-4.17,4.36-.64.66-1.43,1.61-2.15,1.61s-1.48-1-2.14-1.61c-1.6-1.57-2.95-3.47-4.76-4.72C51.36,113.39,49,112,48.06,109.63ZM60.62,43.34c-3.9,0-7.8-.07-11.69.06a3.25,3.25,0,0,0-2.33,1.26c-3.12,4.89-6.13,9.86-9.07,14.86a2.82,2.82,0,0,0,0,2.41c2.94,5,6,10,9.07,14.86a3.24,3.24,0,0,0,2.32,1.3q11.7.15,23.39,0a3.23,3.23,0,0,0,2.3-1.32c3.08-4.83,6-9.76,9-14.61a2.34,2.34,0,0,0,0-2.89c-3-4.79-6-9.61-8.84-14.47a2.69,2.69,0,0,0-2.75-1.48C68.27,43.39,64.45,43.34,60.62,43.34Zm3.86-23.57c4,6.57,7.63,12.56,11.36,18.48a3,3,0,0,0,2.15.81c3,.09,6,0,8.92,0h8.66C88,27.8,78,21.53,64.48,19.77Zm-7.92.34c-10.2-.5-27.6,10.43-30.31,19,5.92,0,11.78,0,17.64-.07a3.2,3.2,0,0,0,2-1.47c2.17-3.41,4.23-6.89,6.33-10.35C53.65,24.88,55.07,22.56,56.56,20.11ZM25.7,82.36c7.63,11.28,17.59,17.57,31,19.25-3.93-6.45-7.57-12.45-11.25-18.42a1.82,1.82,0,0,0-1.24-.8C38.25,82.34,32.24,82.36,25.7,82.36Zm38.8,19.28c13.53-1.77,23.51-8,31-19.28-6.51,0-12.5,0-18.5,0a1.77,1.77,0,0,0-1.24.78C72.11,89.13,68.47,95.12,64.5,101.64ZM98.76,45.48c-3.1,5.09-5.93,9.7-8.7,14.35A2,2,0,0,0,90,61.46c2.81,4.71,5.68,9.38,8.78,14.45A41.78,41.78,0,0,0,98.76,45.48Zm-76.08.32c-4.06,7.73-4.05,22.47.06,29.73,2.91-4.76,5.77-9.43,8.6-14.13a1.49,1.49,0,0,0,.07-1.25C28.55,55.39,25.65,50.66,22.68,45.8ZM71.23,39c-3.63-5.94-7-11.53-10.61-17.37L50,39ZM50,82.44l10.62,17.4c3.6-5.91,7-11.53,10.62-17.4ZM42.35,78,34.26,64.79,26.18,78ZM79,77.92H95L87,64.78Zm8-21.27,8-13.12H79ZM26.2,43.43l8.07,13.22c2.78-4.57,5.34-8.77,8.06-13.22Zm-12.65-9.9c2.09,4.31-.92,9.58,3.91,12.7,1.35-2.8,2.49-5.55,4-8.1s3.34-5,5.12-7.64C21.37,27.9,18.33,33.17,13.55,33.53Zm16.74-7.26L46,17.16c-3.16-4.49-8.34-1.51-12.53-3.5C33.11,18.38,27.85,21.42,30.29,26.27Zm39.38,79.39H51.53c.56,5.54,6.52,5.57,8.86,8.94,2.1-1.38,3.92-2.62,5.79-3.78S69.62,108.05,69.67,105.66Zm35.84-35.85c5.54-.47,5.54-6.52,9.4-9.17-3.92-2.49-3.86-8.63-9.4-9ZM26.23,91.1l-9.1-15.79c-4.44,3.12-1.62,8.35-3.4,12.62C18.37,88.27,21.38,93.46,26.23,91.1Zm81.38-3.22c-2.12-4.12,1.13-9.52-3.5-12.51L95,91.08C99.81,93.47,102.87,88.35,107.61,87.88ZM15.76,51.59c-5.5.47-5.59,6.52-9,8.87,1.39,2.12,2.67,4,3.88,5.93s2.82,3.47,5.09,3.32Zm72-37.49c-11,.74-11,.74-12.36,3.14L91,26.29C93.35,21.41,88.18,18.35,87.76,14.1Zm16.36,32c4.45-3.16,1.51-8.36,3.23-12.11-2.27-1.16-4.3-2.17-6.32-3.22s-4.16-1.62-6-.36C98.13,35.69,101.08,40.8,104.12,46.09ZM75.23,104.24c3,4.51,8.36,1.47,12.52,3.46.43-4.64,5.61-7.73,3.22-12.56ZM69.71,15.79c-.38-5.56-6.53-5.6-8.85-9-2.1,1.39-4,2.69-5.91,3.88s-3.37,2.88-3.37,5.1ZM33.4,107.25l7.86-.44A5.58,5.58,0,0,0,46,104.24L30.28,95.13C27.81,99.9,33.11,103,33.4,107.25Z"/>
        </g>
    </g>
</svg>