<svg xmlns="http://www.w3.org/2000/svg" viewBox="0 0 118.37 124.5" class="chakra5">
    <defs>
        <style>.cls-1{fill:#f89621;}</style>
    </defs>
    <g id="Layer_2" data-name="Layer 2">
        <g id="Layer_5" data-name="Layer 5">
            <path class="cls-1" d="M73.57,17.77C77.05,14.3,80.9,13.82,85,14.15a12.05,12.05,0,0,0,7.84-2,3.21,3.21,0,0,1,2.84-.31,3.11,3.11,0,0,1,.72,2.74,12.43,12.43,0,0,0,.47,8.08c1.57,3.78,2.33,7.6.32,11.69,1.71.18,3.29,0,4.62.55A24.23,24.23,0,0,1,107.59,38c2.58,1.92,5.15,3.47,8.51,3.51.79,0,2.1.8,2.22,1.42a3.26,3.26,0,0,1-1.07,2.64,12.09,12.09,0,0,0-4.35,6.82c-1,4.08-2.65,7.64-7,9.86,4.61,2.2,5.86,6.22,7.24,10.37.76,2.25,2.73,4.09,4.06,6.17.53.82,1.32,1.94,1.11,2.65a3.12,3.12,0,0,1-2.42,1.46,12,12,0,0,0-7.52,3c-3.12,2.69-6.51,4.57-11.36,3.84,2.62,5,.67,9.39-.68,13.92-.55,1.85.08,4,0,6.07,0,1,0,2.5-.59,2.83a3.48,3.48,0,0,1-3-.28,11.67,11.67,0,0,0-7.4-1.94c-4.26.36-8.26-.08-11.73-3.58-.82,5.12-4.3,7.61-7.88,10.23-1.8,1.32-2.85,3.63-4.32,5.43-.66.82-1.48,2.07-2.26,2.09s-1.61-1.23-2.28-2c-1.52-1.85-2.64-4.19-4.49-5.58-3.49-2.61-7-5-7.67-10.22-3.59,3.67-7.68,3.76-12,3.77-2.38,0-4.74,1.25-7.14,1.86-1,.25-2.29.68-3.06.27-.56-.28-.83-1.92-.59-2.77a11.62,11.62,0,0,0-.44-7.85c-1.6-3.87-2.41-7.74-.24-12.15-5.49.9-9-2.22-12.83-4.86-1.65-1.14-4-1.27-6-2C1.6,82.64.3,82.2.05,81.51a3.13,3.13,0,0,1,1.06-2.62,12,12,0,0,0,4.3-6.6c1-4.12,2.55-7.87,7-10A14.9,14.9,0,0,1,5.34,52,12.8,12.8,0,0,0,.91,45.23a2.82,2.82,0,0,1-.84-2.4A2.92,2.92,0,0,1,2.4,41.56,9.3,9.3,0,0,0,9.52,39c3.2-3,6.73-5,11.8-4.37-2.61-4.92-.7-9.21.65-13.66.57-1.86,0-4,.07-6.07,0-1.06-.05-2.54.56-3s2,0,3,.27c2.47.6,4.91,1.83,7.37,1.87,4.22.07,8.26.1,11.71,3.68.8-5.08,4.19-7.57,7.72-10.15,1.86-1.37,3-3.74,4.49-5.58.66-.8,1.47-1.87,2.33-2,.61-.1,1.77,1,2.09,1.86A12.28,12.28,0,0,0,66.51,8.1C70,10.25,72.91,12.86,73.57,17.77ZM93.62,45H24.76l34.43,56.4Zm.53-4.39C85.29,27.7,73.6,21,58.49,21.21,44,21.44,32.73,28.13,24.26,40.57Zm-73,6.55c-10.34,26.41,8.31,53.78,34,55.81C43.83,84.31,32.59,65.87,21.15,47.12Zm76.05.09-34,55.71C89.62,100.83,107.57,72.51,97.2,47.21ZM13.51,58l6-19.1c-5.23-.46-7.74,5.14-12.74,6.29C10.15,49.28,9.15,55.18,13.51,58Zm55.62,49.05H49.21c1.48,5.24,7.33,6,10,10.41C61.8,112.92,68,112.28,69.13,107.05ZM19.51,85.53c-2.06-6.39-4.07-12.62-6.08-18.89C9,69.49,10.2,75.45,7.06,78.89c2.22,1.49,4.23,2.72,6.12,4.12S17.15,85.85,19.51,85.53ZM69.16,17.39c-1.43-5.22-7.36-6-10-10.39-2.55,4.55-8.73,5.19-9.87,10.39Zm22.43.14c-4.91,2-10.2-.9-14,2.49L93.62,31.7C95.61,26.92,91.17,22.77,91.59,17.53Zm19.49,61.75c-.89-2.43-1.8-4.69-2.54-7S107,67.68,105,66.72L98.83,85.57a4.37,4.37,0,0,0,1.9-.22C104.23,83.38,107.67,81.3,111.08,79.28ZM105,57.79c4.47-2.73,3.24-8.72,6.69-12.65-5.11-1.08-7.6-6.73-12.8-6.24C100.9,45.23,102.92,51.47,105,57.79ZM77.53,104.45c4,3.34,9.32.36,13.57,2.21.78-2.66,1.41-5,2.15-7.31s1.42-4.65.32-6.57C88.22,96.66,82.92,100.52,77.53,104.45ZM40.83,20c-3.91-3.41-9.24-.43-13.66-2.35C24,30.09,24,30.09,25,31.54ZM26.77,106.94c4.77-2.2,10.16.93,14.05-2.5l-16-11.69C22.74,97.51,27.22,101.65,26.77,106.94Z"/>
        </g>
    </g>
</svg>