<svg xmlns="http://www.w3.org/2000/svg" viewBox="0 0 144.96 126.65" class="chakra6">
    <defs>
        <style>.cls-1{fill:#f89621;}</style>
    </defs>
    <g id="Layer_2" data-name="Layer 2">
        <g id="Layer_5" data-name="Layer 5">
            <path class="cls-1" d="M30,38.2a26,26,0,0,1,3.15-16.13C36.39,16,37.68,9.63,35.94,2.8c-.21-.82.3-2.47.86-2.69a3.42,3.42,0,0,1,3,.67c4.87,4.83,10.77,7.06,17.5,7.51C63,8.66,68.45,9.92,73,14c4.75-4.11,10.42-5.1,16.3-5.4a25.73,25.73,0,0,0,17-7c.72-.66,2.12-.59,3.2-.87.24,1,.89,2.15.66,3.06a25.28,25.28,0,0,0,1.7,17.43c2.52,5.37,4.75,10.79,3.74,17a1.69,1.69,0,0,0,.88,1.31c5.4,2.17,8.52,6.68,11.91,11.06a56.05,56.05,0,0,0,8.46,8.55c1.68,1.4,4.13,1.85,6.14,2.9.83.43,2,1.29,2,2a2.94,2.94,0,0,1-1.8,2.17c-7.09,1.82-12.06,6.27-16,12.2-2.79,4.19-6.22,7.73-11,9.65a2,2,0,0,0-1,1.64,24.75,24.75,0,0,1-2.81,13.73c-.43.9-.83,1.81-1.27,2.7a25.38,25.38,0,0,0-2.15,17.38c.21,1-.48,2.14-.75,3.22-1.07-.32-2.46-.32-3.16-1-5-5-11.18-7-18-7.42-5.12-.34-10-1.54-14.09-4.8a1.68,1.68,0,0,0-1.56-.19c-5,4-11.07,4.52-17.1,5a25,25,0,0,0-15.29,6.56c-.81.73-2.21.81-3.34,1.19-.27-1.15-1-2.42-.74-3.44a25,25,0,0,0-1.6-16.78c-.76-1.67-1.48-3.35-2.18-5A22.52,22.52,0,0,1,29.27,89a2.46,2.46,0,0,0-1.09-2,23.53,23.53,0,0,1-9.62-8.25C17.28,77,16,75.13,14.69,73.36a22.91,22.91,0,0,0-11-8,12.39,12.39,0,0,1-2.31-1c-1.85-1.07-1.88-2.58-.08-3.68A7.14,7.14,0,0,1,3,60a24.08,24.08,0,0,0,13.24-9.67c.35-.5.74-1,1.08-1.49C20.43,44.07,24.4,40.28,30,38.2Zm42,69.09c25.19.18,45.19-19.92,44.39-46-.7-22.52-18.91-41.67-43.64-42A44,44,0,0,0,72,107.29Zm-6,4.51-.14-.74A48.4,48.4,0,0,1,48,104.82,54.83,54.83,0,0,1,33.6,92.27c.65,9.07,7.82,16.4,5.95,26.59,6.35-4.55,13-4.74,19.61-5.49A57.64,57.64,0,0,0,65.93,111.8Zm45.52-76.89c-.11-5.42-2.73-9.26-4.08-13.5s-2.06-8.57-3.07-12.91c-5,3.57-11.36,4-17.67,4.62a67.36,67.36,0,0,0-7.58,1.62l.06.76a50.38,50.38,0,0,1,17.74,6.23A51.34,51.34,0,0,1,111.45,34.91ZM66.78,15.11c-8.19-3.95-18.14-1.45-25.72-7.85-.34,8-.76,9.51-3.93,16.45-1.07,2.35-1.89,4.82-2.73,7.27a11.83,11.83,0,0,0-.28,2.47A58.47,58.47,0,0,1,48.89,21.27,56.53,56.53,0,0,1,66.78,15.11Zm50.89,29.62-.56.35a50.54,50.54,0,0,1-.22,37.52c7.57-5.17,10.38-15.09,20-18.6-7.23-3.25-10.78-9.13-14.76-14.64A44.4,44.4,0,0,0,117.67,44.73ZM8.13,62.64c6.55,3,10.11,8.22,13.79,13.4a67.72,67.72,0,0,0,5.25,5.87l.68-.34C23,69.08,23.18,56.62,27.82,44a24.26,24.26,0,0,0-5.32,5C18.7,54.32,15,59.63,8.13,62.64Zm69.92,48.6,0,.64a49.82,49.82,0,0,0,6.47,1.72c6.58.85,13.25,1.3,19,5.23.07,0,.26-.08.15,0,.43-2.9.54-5.77,1.35-8.43,1-3.41,2.72-6.61,4-10,.87-2.33,1.48-4.76,2.21-7.15l-.65-.3A48.71,48.71,0,0,1,78.05,111.24Z"/>
            <path class="cls-1" d="M72.78,26.68c19,.21,36,14.43,36.2,36.91.2,20.27-16.55,36.48-36.75,36.4a36.66,36.66,0,0,1,.55-73.31Zm23.27,29.2C96.69,43,87.6,31.92,74.15,31A23.27,23.27,0,0,0,49.08,52.42C47.77,66,58.35,77.05,70.71,78.09,82.45,79.07,95.29,70.22,96.05,55.88Zm2.72-11.39c3.33,13,1.16,24.2-9.72,32.31C79.83,83.67,69.5,84.57,59.5,79c-14-7.88-17.11-20.31-12.83-35.27a32.39,32.39,0,0,0,48.07,43.1C108.42,73.72,106.4,54.44,98.77,44.49Z"/>
        </g>
    </g>
</svg>