<svg xmlns="http://www.w3.org/2000/svg" viewBox="0 0 113.02 113.14" class="chakra7">
    <defs>
        <style>.cls-1{fill:#f89621;}</style>
    </defs>
    <g id="Layer_2" data-name="Layer 2">
        <g id="Layer_5" data-name="Layer 5">
            <path class="cls-1" d="M106.54,56.63c4.64,5.6,7.3,11.73,6.26,18.95a78.37,78.37,0,0,1-2.12,9.13c-1.44,5.32-3.12,10.62-2,16.22.47,2.3,1.45,4.49,2,6.78.22.93.28,2.33-.25,2.87a3.14,3.14,0,0,1-2.84.22,27.18,27.18,0,0,0-19.26-1c-3.08.88-6.18,1.74-9.28,2.54a23,23,0,0,1-20-3.78l-2.52-1.83c-.71.51-1.46,1-2.18,1.56a23.16,23.16,0,0,1-20.4,4c-4.36-1.12-8.69-2.38-13.09-3.35a24.52,24.52,0,0,0-15,1.67c-1,.4-2.66.51-3.25-.06s-.51-2.28-.1-3.23c2.67-6.11,2.69-12.3,1-18.62-.91-3.31-1.87-6.61-2.7-10a23,23,0,0,1,4.06-20c.5-.67,1-1.36,1.47-2,0-.06,0-.15,0,0C4.75,54.12,3.13,51.7,1.88,49.1-.65,43.8-.33,38.27,1.12,32.74c.87-3.33,1.86-6.62,2.7-10a25.87,25.87,0,0,0-1.34-17,3.86,3.86,0,0,1,.18-3.25c.36-.5,2.14-.44,3-.05C12,5.25,18.44,5.16,25,3.31L33.12,1A23.4,23.4,0,0,1,54.94,5.33c1.14.89,1.89,1,3.11,0C64.7.11,72.15-1.21,80.3,1.1c3.52,1,7,2,10.62,2.85A25.72,25.72,0,0,0,107.3,2.48a3.85,3.85,0,0,1,3.23.15c.51.4.44,2.16,0,3.05a26.55,26.55,0,0,0-1.19,18c.91,3.39,1.92,6.76,2.78,10.16A23.43,23.43,0,0,1,108,54.61C107.56,55.22,107.12,55.84,106.54,56.63Zm-78.87-29V85.46H85.28V27.64Zm76.78,23.83.89.17a72.53,72.53,0,0,0,3-8c1.26-5.2-.52-10.13-2-15s-2.64-9.9-2.14-15.1c.18-1.79.54-3.55.87-5.66C97.68,10,90.78,8.61,83.91,6.57a63.61,63.61,0,0,0-8.23-2c-5.2-.81-9.93.46-14.58,3.95,11.7,1.39,21.44,5.94,29.45,13.94A48,48,0,0,1,104.45,51.47Zm.28,9.89C100.32,86.06,86,100.43,61.51,104.8a4.26,4.26,0,0,0,.53.56c.44.3.9.57,1.36.84,5.72,3.34,11.69,3,17.75,1.19,7.76-2.34,15.53-4.67,24.1-2a31.86,31.86,0,0,1,.17-17.52c.92-3.31,1.88-6.61,2.67-10A19.44,19.44,0,0,0,104.73,61.36ZM8.56,52c1.42-11.83,6-21.55,14-29.56S40.32,9.94,51.64,8.2a33.59,33.59,0,0,0-7.42-3.34c-4.93-1.37-9.71,0-14.39,1.48-7,2.2-14,3.61-21.38,1.71-.1,0-.25.12-.53.26,2,6.75.86,13.38-1.09,20a77.25,77.25,0,0,0-2.06,8A19,19,0,0,0,8.56,52Zm43.15,52.83C27,100.37,12.7,86,8.37,61.63a1.33,1.33,0,0,0-.42.23,7.85,7.85,0,0,0-.52.76c-3.64,5.72-3.55,11.79-1.86,18.1a108.46,108.46,0,0,1,3.17,14c.44,3.38-.23,6.91-.41,10.49,6.57-2,13.14-.93,19.66,1,2.64.78,5.28,1.56,8,2.09A19.07,19.07,0,0,0,51.71,104.81ZM84.62,90H28.25C44.81,104.92,71.13,103,84.62,90ZM23.23,28.56A41.89,41.89,0,0,0,13.26,64a42.56,42.56,0,0,0,10,21.23Zm61.7-5.4c-17.81-15.36-43.29-12.55-56.54,0Zm5,5.29V84.69C104,69.51,103.76,43.33,89.94,28.45Z"/>
            <path class="cls-1" d="M56.54,38.83c6,0,12.07,0,18.11,0,2.9,0,3.8,1.5,2.32,3.94q-9.09,15-18.27,29.92c-1.35,2.19-3,2.16-4.39,0Q45.15,57.71,36.05,42.73c-1.41-2.32-.55-3.87,2.15-3.89C44.32,38.8,50.43,38.83,56.54,38.83Zm0,29.27L71.71,43.22H41.34Z"/>
        </g>
    </g>
</svg>